<svg width="93" height="244" viewBox="0 0 93 244" fill="none" xmlns="http://www.w3.org/2000/svg">
<g clip-path="url(#clip0_3_4)">
<path d="M90.6216 0.5C89.5838 0.5 88.7432 1.30953 88.7432 2.30896C88.7432 3.30838 89.5838 4.11792 90.6216 4.11792C91.6594 4.11792 92.5 3.30838 92.5 2.30896C92.5 1.30953 91.6594 0.5 90.6216 0.5Z" fill="#1EA75A"/>
<path d="M90.6216 20.4485C89.5838 20.4485 88.7432 21.258 88.7432 22.2575C88.7432 23.2569 89.5838 24.0664 90.6216 24.0664C91.6594 24.0664 92.5 23.2569 92.5 22.2575C92.5 21.258 91.6594 20.4485 90.6216 20.4485Z" fill="#1EA75A"/>
<path d="M90.6216 40.397C89.5838 40.397 88.7432 41.2065 88.7432 42.206C88.7432 43.2054 89.5838 44.0149 90.6216 44.0149C91.6594 44.0149 92.5 43.2054 92.5 42.206C92.5 41.2065 91.6594 40.397 90.6216 40.397Z" fill="#1EA75A"/>
<path d="M90.6216 60.3455C89.5838 60.3455 88.7432 61.1551 88.7432 62.1545C88.7432 63.1539 89.5838 63.9634 90.6216 63.9634C91.6594 63.9634 92.5 63.1539 92.5 62.1545C92.5 61.1551 91.6594 60.3455 90.6216 60.3455Z" fill="#1EA75A"/>
<path d="M90.6216 80.294C89.5838 80.294 88.7432 81.1036 88.7432 82.103C88.7432 83.1024 89.5838 83.9119 90.6216 83.9119C91.6594 83.9119 92.5 83.1024 92.5 82.103C92.5 81.1036 91.6594 80.294 90.6216 80.294Z" fill="#1EA75A"/>
<path d="M90.6216 100.243C89.5838 100.243 88.7432 101.052 88.7432 102.051C88.7432 103.051 89.5838 103.86 90.6216 103.86C91.6594 103.86 92.5 103.051 92.5 102.051C92.5 101.052 91.6594 100.243 90.6216 100.243Z" fill="#1EA75A"/>
<path d="M90.6216 120.191C89.5838 120.191 88.7432 121.001 88.7432 122C88.7432 122.999 89.5838 123.809 90.6216 123.809C91.6594 123.809 92.5 122.999 92.5 122C92.5 121.001 91.6594 120.191 90.6216 120.191Z" fill="#1EA75A"/>
<path d="M90.6216 140.14C89.5838 140.14 88.7432 140.949 88.7432 141.949C88.7432 142.948 89.5838 143.757 90.6216 143.757C91.6594 143.757 92.5 142.948 92.5 141.949C92.5 140.949 91.6594 140.14 90.6216 140.14Z" fill="#1EA75A"/>
<path d="M90.6216 160.088C89.5838 160.088 88.7432 160.898 88.7432 161.897C88.7432 162.896 89.5838 163.706 90.6216 163.706C91.6594 163.706 92.5 162.896 92.5 161.897C92.5 160.898 91.6594 160.088 90.6216 160.088Z" fill="#1EA75A"/>
<path d="M90.6216 180.037C89.5838 180.037 88.7432 180.846 88.7432 181.846C88.7432 182.845 89.5838 183.654 90.6216 183.654C91.6594 183.654 92.5 182.845 92.5 181.846C92.5 180.846 91.6594 180.037 90.6216 180.037Z" fill="#1EA75A"/>
<path d="M90.6216 199.985C89.5838 199.985 88.7432 200.795 88.7432 201.794C88.7432 202.793 89.5838 203.603 90.6216 203.603C91.6594 203.603 92.5 202.793 92.5 201.794C92.5 200.795 91.6594 199.985 90.6216 199.985Z" fill="#1EA75A"/>
<path d="M90.6216 219.934C89.5838 219.934 88.7432 220.743 88.7432 221.743C88.7432 222.742 89.5838 223.551 90.6216 223.551C91.6594 223.551 92.5 222.742 92.5 221.743C92.5 220.743 91.6594 219.934 90.6216 219.934Z" fill="#1EA75A"/>
<path d="M90.6216 239.882C89.5838 239.882 88.7432 240.692 88.7432 241.691C88.7432 242.69 89.5838 243.5 90.6216 243.5C91.6594 243.5 92.5 242.69 92.5 241.691C92.5 240.692 91.6594 239.882 90.6216 239.882Z" fill="#1EA75A"/>
<path d="M72.9688 0.5C71.931 0.5 71.0904 1.30953 71.0904 2.30896C71.0904 3.30838 71.931 4.11792 72.9688 4.11792C74.0066 4.11792 74.8472 3.30838 74.8472 2.30896C74.8472 1.30953 74.0066 0.5 72.9688 0.5Z" fill="#1EA75A"/>
<path d="M72.9688 20.4485C71.931 20.4485 71.0904 21.258 71.0904 22.2575C71.0904 23.2569 71.931 24.0664 72.9688 24.0664C74.0066 24.0664 74.8472 23.2569 74.8472 22.2575C74.8472 21.258 74.0066 20.4485 72.9688 20.4485Z" fill="#1EA75A"/>
<path d="M72.9688 40.397C71.931 40.397 71.0904 41.2065 71.0904 42.206C71.0904 43.2054 71.931 44.0149 72.9688 44.0149C74.0066 44.0149 74.8472 43.2054 74.8472 42.206C74.8472 41.2065 74.0066 40.397 72.9688 40.397Z" fill="#1EA75A"/>
<path d="M72.9688 60.3455C71.931 60.3455 71.0904 61.1551 71.0904 62.1545C71.0904 63.1539 71.931 63.9634 72.9688 63.9634C74.0066 63.9634 74.8472 63.1539 74.8472 62.1545C74.8472 61.1551 74.0066 60.3455 72.9688 60.3455Z" fill="#1EA75A"/>
<path d="M72.9688 80.294C71.931 80.294 71.0904 81.1036 71.0904 82.103C71.0904 83.1024 71.931 83.9119 72.9688 83.9119C74.0066 83.9119 74.8472 83.1024 74.8472 82.103C74.8472 81.1036 74.0066 80.294 72.9688 80.294Z" fill="#1EA75A"/>
<path d="M72.9688 100.243C71.931 100.243 71.0904 101.052 71.0904 102.051C71.0904 103.051 71.931 103.86 72.9688 103.86C74.0066 103.86 74.8472 103.051 74.8472 102.051C74.8472 101.052 74.0066 100.243 72.9688 100.243Z" fill="#1EA75A"/>
<path d="M72.9688 120.191C71.931 120.191 71.0904 121.001 71.0904 122C71.0904 122.999 71.931 123.809 72.9688 123.809C74.0066 123.809 74.8472 122.999 74.8472 122C74.8472 121.001 74.0066 120.191 72.9688 120.191Z" fill="#1EA75A"/>
<path d="M72.9688 140.14C71.931 140.14 71.0904 140.949 71.0904 141.949C71.0904 142.948 71.931 143.757 72.9688 143.757C74.0066 143.757 74.8472 142.948 74.8472 141.949C74.8472 140.949 74.0066 140.14 72.9688 140.14Z" fill="#1EA75A"/>
<path d="M72.9688 160.088C71.931 160.088 71.0904 160.898 71.0904 161.897C71.0904 162.896 71.931 163.706 72.9688 163.706C74.0066 163.706 74.8472 162.896 74.8472 161.897C74.8472 160.898 74.0066 160.088 72.9688 160.088Z" fill="#1EA75A"/>
<path d="M72.9688 180.037C71.931 180.037 71.0904 180.846 71.0904 181.846C71.0904 182.845 71.931 183.654 72.9688 183.654C74.0066 183.654 74.8472 182.845 74.8472 181.846C74.8472 180.846 74.0066 180.037 72.9688 180.037Z" fill="#1EA75A"/>
<path d="M72.9688 199.985C71.931 199.985 71.0904 200.795 71.0904 201.794C71.0904 202.793 71.931 203.603 72.9688 203.603C74.0066 203.603 74.8472 202.793 74.8472 201.794C74.8472 200.795 74.0066 199.985 72.9688 199.985Z" fill="#1EA75A"/>
<path d="M72.9688 219.934C71.931 219.934 71.0904 220.743 71.0904 221.743C71.0904 222.742 71.931 223.551 72.9688 223.551C74.0066 223.551 74.8472 222.742 74.8472 221.743C74.8472 220.743 74.0066 219.934 72.9688 219.934Z" fill="#1EA75A"/>
<path d="M72.9688 239.882C71.931 239.882 71.0904 240.692 71.0904 241.691C71.0904 242.69 71.931 243.5 72.9688 243.5C74.0066 243.5 74.8472 242.69 74.8472 241.691C74.8472 240.692 74.0066 239.882 72.9688 239.882Z" fill="#1EA75A"/>
<path d="M55.3264 0.5C54.2886 0.5 53.448 1.30953 53.448 2.30896C53.448 3.30838 54.2886 4.11792 55.3264 4.11792C56.3642 4.11792 57.2048 3.30838 57.2048 2.30896C57.2048 1.30953 56.3642 0.5 55.3264 0.5Z" fill="#1EA75A"/>
<path d="M55.3264 20.4485C54.2886 20.4485 53.448 21.258 53.448 22.2575C53.448 23.2569 54.2886 24.0664 55.3264 24.0664C56.3642 24.0664 57.2048 23.2569 57.2048 22.2575C57.2048 21.258 56.3642 20.4485 55.3264 20.4485Z" fill="#1EA75A"/>
<path d="M55.3264 40.397C54.2886 40.397 53.448 41.2065 53.448 42.206C53.448 43.2054 54.2886 44.0149 55.3264 44.0149C56.3642 44.0149 57.2048 43.2054 57.2048 42.206C57.2048 41.2065 56.3642 40.397 55.3264 40.397Z" fill="#1EA75A"/>
<path d="M55.3264 60.3455C54.2886 60.3455 53.448 61.1551 53.448 62.1545C53.448 63.1539 54.2886 63.9634 55.3264 63.9634C56.3642 63.9634 57.2048 63.1539 57.2048 62.1545C57.2048 61.1551 56.3642 60.3455 55.3264 60.3455Z" fill="#1EA75A"/>
<path d="M55.3264 80.294C54.2886 80.294 53.448 81.1036 53.448 82.103C53.448 83.1024 54.2886 83.9119 55.3264 83.9119C56.3642 83.9119 57.2048 83.1024 57.2048 82.103C57.2048 81.1036 56.3642 80.294 55.3264 80.294Z" fill="#1EA75A"/>
<path d="M55.3264 100.243C54.2886 100.243 53.448 101.052 53.448 102.051C53.448 103.051 54.2886 103.86 55.3264 103.86C56.3642 103.86 57.2048 103.051 57.2048 102.051C57.2048 101.052 56.3642 100.243 55.3264 100.243Z" fill="#1EA75A"/>
<path d="M55.3264 120.191C54.2886 120.191 53.448 121.001 53.448 122C53.448 122.999 54.2886 123.809 55.3264 123.809C56.3642 123.809 57.2048 122.999 57.2048 122C57.2048 121.001 56.3642 120.191 55.3264 120.191Z" fill="#1EA75A"/>
<path d="M55.3264 140.14C54.2886 140.14 53.448 140.949 53.448 141.949C53.448 142.948 54.2886 143.757 55.3264 143.757C56.3642 143.757 57.2048 142.948 57.2048 141.949C57.2048 140.949 56.3642 140.14 55.3264 140.14Z" fill="#1EA75A"/>
<path d="M55.3264 160.088C54.2886 160.088 53.448 160.898 53.448 161.897C53.448 162.896 54.2886 163.706 55.3264 163.706C56.3642 163.706 57.2048 162.896 57.2048 161.897C57.2048 160.898 56.3642 160.088 55.3264 160.088Z" fill="#1EA75A"/>
<path d="M55.3264 180.037C54.2886 180.037 53.448 180.846 53.448 181.846C53.448 182.845 54.2886 183.654 55.3264 183.654C56.3642 183.654 57.2048 182.845 57.2048 181.846C57.2048 180.846 56.3642 180.037 55.3264 180.037Z" fill="#1EA75A"/>
<path d="M55.3264 199.985C54.2886 199.985 53.448 200.795 53.448 201.794C53.448 202.793 54.2886 203.603 55.3264 203.603C56.3642 203.603 57.2048 202.793 57.2048 201.794C57.2048 200.795 56.3642 199.985 55.3264 199.985Z" fill="#1EA75A"/>
<path d="M55.3264 219.934C54.2886 219.934 53.448 220.743 53.448 221.743C53.448 222.742 54.2886 223.551 55.3264 223.551C56.3642 223.551 57.2048 222.742 57.2048 221.743C57.2048 220.743 56.3642 219.934 55.3264 219.934Z" fill="#1EA75A"/>
<path d="M55.3264 239.882C54.2886 239.882 53.448 240.692 53.448 241.691C53.448 242.69 54.2886 243.5 55.3264 243.5C56.3642 243.5 57.2048 242.69 57.2048 241.691C57.2048 240.692 56.3642 239.882 55.3264 239.882Z" fill="#1EA75A"/>
<path d="M37.6736 0.499996C36.6358 0.499996 35.7952 1.30953 35.7952 2.30895C35.7952 3.30838 36.6358 4.11791 37.6736 4.11791C38.7114 4.11791 39.552 3.30838 39.552 2.30895C39.552 1.30953 38.7114 0.499996 37.6736 0.499996Z" fill="#1EA75A"/>
<path d="M37.6736 20.4485C36.6358 20.4485 35.7952 21.258 35.7952 22.2575C35.7952 23.2569 36.6358 24.0664 37.6736 24.0664C38.7114 24.0664 39.552 23.2569 39.552 22.2575C39.552 21.258 38.7114 20.4485 37.6736 20.4485Z" fill="#1EA75A"/>
<path d="M37.6736 40.397C36.6358 40.397 35.7952 41.2065 35.7952 42.206C35.7952 43.2054 36.6358 44.0149 37.6736 44.0149C38.7114 44.0149 39.552 43.2054 39.552 42.206C39.552 41.2065 38.7114 40.397 37.6736 40.397Z" fill="#1EA75A"/>
<path d="M37.6736 60.3455C36.6358 60.3455 35.7952 61.1551 35.7952 62.1545C35.7952 63.1539 36.6358 63.9634 37.6736 63.9634C38.7114 63.9634 39.552 63.1539 39.552 62.1545C39.552 61.1551 38.7114 60.3455 37.6736 60.3455Z" fill="#1EA75A"/>
<path d="M37.6736 80.294C36.6358 80.294 35.7952 81.1036 35.7952 82.103C35.7952 83.1024 36.6358 83.9119 37.6736 83.9119C38.7114 83.9119 39.552 83.1024 39.552 82.103C39.552 81.1036 38.7114 80.294 37.6736 80.294Z" fill="#1EA75A"/>
<path d="M37.6736 100.243C36.6358 100.243 35.7952 101.052 35.7952 102.051C35.7952 103.051 36.6358 103.86 37.6736 103.86C38.7114 103.86 39.552 103.051 39.552 102.051C39.552 101.052 38.7114 100.243 37.6736 100.243Z" fill="#1EA75A"/>
<path d="M37.6736 120.191C36.6358 120.191 35.7952 121.001 35.7952 122C35.7952 122.999 36.6358 123.809 37.6736 123.809C38.7114 123.809 39.552 122.999 39.552 122C39.552 121.001 38.7114 120.191 37.6736 120.191Z" fill="#1EA75A"/>
<path d="M37.6736 140.14C36.6358 140.14 35.7952 140.949 35.7952 141.949C35.7952 142.948 36.6358 143.757 37.6736 143.757C38.7114 143.757 39.552 142.948 39.552 141.949C39.552 140.949 38.7114 140.14 37.6736 140.14Z" fill="#1EA75A"/>
<path d="M37.6736 160.088C36.6358 160.088 35.7952 160.898 35.7952 161.897C35.7952 162.896 36.6358 163.706 37.6736 163.706C38.7114 163.706 39.552 162.896 39.552 161.897C39.552 160.898 38.7114 160.088 37.6736 160.088Z" fill="#1EA75A"/>
<path d="M37.6736 180.037C36.6358 180.037 35.7952 180.846 35.7952 181.846C35.7952 182.845 36.6358 183.654 37.6736 183.654C38.7114 183.654 39.552 182.845 39.552 181.846C39.552 180.846 38.7114 180.037 37.6736 180.037Z" fill="#1EA75A"/>
<path d="M37.6736 199.985C36.6358 199.985 35.7952 200.795 35.7952 201.794C35.7952 202.793 36.6358 203.603 37.6736 203.603C38.7114 203.603 39.552 202.793 39.552 201.794C39.552 200.795 38.7114 199.985 37.6736 199.985Z" fill="#1EA75A"/>
<path d="M37.6736 219.934C36.6358 219.934 35.7952 220.743 35.7952 221.743C35.7952 222.742 36.6358 223.551 37.6736 223.551C38.7114 223.551 39.552 222.742 39.552 221.743C39.552 220.743 38.7114 219.934 37.6736 219.934Z" fill="#1EA75A"/>
<path d="M37.6736 239.882C36.6358 239.882 35.7952 240.692 35.7952 241.691C35.7952 242.69 36.6358 243.5 37.6736 243.5C38.7114 243.5 39.552 242.69 39.552 241.691C39.552 240.692 38.7114 239.882 37.6736 239.882Z" fill="#1EA75A"/>
<path d="M20.0208 0.499996C18.983 0.499996 18.1424 1.30953 18.1424 2.30895C18.1424 3.30838 18.983 4.11791 20.0208 4.11791C21.0586 4.11791 21.8992 3.30838 21.8992 2.30895C21.8992 1.30953 21.0586 0.499996 20.0208 0.499996Z" fill="#1EA75A"/>
<path d="M20.0208 20.4485C18.983 20.4485 18.1424 21.258 18.1424 22.2575C18.1424 23.2569 18.983 24.0664 20.0208 24.0664C21.0586 24.0664 21.8992 23.2569 21.8992 22.2575C21.8992 21.258 21.0586 20.4485 20.0208 20.4485Z" fill="#1EA75A"/>
<path d="M20.0208 40.397C18.983 40.397 18.1424 41.2065 18.1424 42.206C18.1424 43.2054 18.983 44.0149 20.0208 44.0149C21.0586 44.0149 21.8992 43.2054 21.8992 42.206C21.8992 41.2065 21.0586 40.397 20.0208 40.397Z" fill="#1EA75A"/>
<path d="M18.1424 62.1545C18.1424 63.1535 18.9834 63.9634 20.0208 63.9634C21.0582 63.9634 21.8992 63.1535 21.8992 62.1545C21.8992 61.1554 21.0582 60.3455 20.0208 60.3455C18.9834 60.3455 18.1424 61.1554 18.1424 62.1545Z" fill="#1EA75A"/>
<path d="M18.1424 82.103C18.1424 83.102 18.9834 83.9119 20.0208 83.9119C21.0582 83.9119 21.8992 83.102 21.8992 82.103C21.8992 81.1039 21.0582 80.294 20.0208 80.294C18.9834 80.294 18.1424 81.1039 18.1424 82.103Z" fill="#1EA75A"/>
<path d="M18.1424 102.051C18.1424 103.051 18.9834 103.86 20.0208 103.86C21.0582 103.86 21.8992 103.051 21.8992 102.051C21.8992 101.052 21.0582 100.243 20.0208 100.243C18.9834 100.243 18.1424 101.052 18.1424 102.051Z" fill="#1EA75A"/>
<path d="M20.0208 120.191C18.983 120.191 18.1424 121.001 18.1424 122C18.1424 122.999 18.983 123.809 20.0208 123.809C21.0586 123.809 21.8992 122.999 21.8992 122C21.8992 121.001 21.0586 120.191 20.0208 120.191Z" fill="#1EA75A"/>
<path d="M20.0208 140.14C18.983 140.14 18.1424 140.949 18.1424 141.949C18.1424 142.948 18.983 143.757 20.0208 143.757C21.0586 143.757 21.8992 142.948 21.8992 141.949C21.8992 140.949 21.0586 140.14 20.0208 140.14Z" fill="#1EA75A"/>
<path d="M20.0208 160.088C18.983 160.088 18.1424 160.898 18.1424 161.897C18.1424 162.896 18.983 163.706 20.0208 163.706C21.0586 163.706 21.8992 162.896 21.8992 161.897C21.8992 160.898 21.0586 160.088 20.0208 160.088Z" fill="#1EA75A"/>
<path d="M20.0208 180.037C18.983 180.037 18.1424 180.846 18.1424 181.846C18.1424 182.845 18.983 183.654 20.0208 183.654C21.0586 183.654 21.8992 182.845 21.8992 181.846C21.8992 180.846 21.0586 180.037 20.0208 180.037Z" fill="#1EA75A"/>
<path d="M20.0208 199.985C18.983 199.985 18.1424 200.795 18.1424 201.794C18.1424 202.793 18.983 203.603 20.0208 203.603C21.0586 203.603 21.8992 202.793 21.8992 201.794C21.8992 200.795 21.0586 199.985 20.0208 199.985Z" fill="#1EA75A"/>
<path d="M20.0208 219.934C18.983 219.934 18.1424 220.743 18.1424 221.743C18.1424 222.742 18.983 223.551 20.0208 223.551C21.0586 223.551 21.8992 222.742 21.8992 221.743C21.8992 220.743 21.0586 219.934 20.0208 219.934Z" fill="#1EA75A"/>
<path d="M20.0208 239.882C18.983 239.882 18.1424 240.692 18.1424 241.691C18.1424 242.69 18.983 243.5 20.0208 243.5C21.0586 243.5 21.8992 242.69 21.8992 241.691C21.8992 240.692 21.0586 239.882 20.0208 239.882Z" fill="#1EA75A"/>
<path d="M2.3784 0.499996C1.34061 0.499996 0.499998 1.30953 0.499998 2.30895C0.499998 3.30838 1.34061 4.11791 2.3784 4.11791C3.41619 4.11791 4.2568 3.30838 4.2568 2.30895C4.2568 1.30953 3.41619 0.499996 2.3784 0.499996Z" fill="#1EA75A"/>
<path d="M2.3784 20.4485C1.34061 20.4485 0.499998 21.258 0.499998 22.2575C0.499998 23.2569 1.34061 24.0664 2.3784 24.0664C3.41619 24.0664 4.2568 23.2569 4.2568 22.2575C4.2568 21.258 3.41619 20.4485 2.3784 20.4485Z" fill="#1EA75A"/>
<path d="M2.3784 40.397C1.34061 40.397 0.499996 41.2065 0.499996 42.206C0.499996 43.2054 1.34061 44.0149 2.3784 44.0149C3.41619 44.0149 4.2568 43.2054 4.2568 42.206C4.2568 41.2065 3.41619 40.397 2.3784 40.397Z" fill="#1EA75A"/>
<path d="M2.3784 60.3455C1.34061 60.3455 0.499996 61.1551 0.499996 62.1545C0.499996 63.1539 1.34061 63.9634 2.3784 63.9634C3.41619 63.9634 4.2568 63.1539 4.2568 62.1545C4.2568 61.1551 3.41619 60.3455 2.3784 60.3455Z" fill="#1EA75A"/>
<path d="M2.3784 80.294C1.34061 80.294 0.499995 81.1036 0.499994 82.103C0.499994 83.1024 1.34061 83.9119 2.3784 83.9119C3.41619 83.9119 4.25679 83.1024 4.25679 82.103C4.25679 81.1036 3.41619 80.294 2.3784 80.294Z" fill="#1EA75A"/>
<path d="M2.3784 100.243C1.34061 100.243 0.499995 101.052 0.499994 102.051C0.499994 103.051 1.34061 103.86 2.3784 103.86C3.41619 103.86 4.25679 103.051 4.25679 102.051C4.25679 101.052 3.41619 100.243 2.3784 100.243Z" fill="#1EA75A"/>
<path d="M2.3784 120.191C1.34061 120.191 0.499993 121.001 0.499993 122C0.499993 122.999 1.34061 123.809 2.3784 123.809C3.41619 123.809 4.25679 122.999 4.25679 122C4.25679 121.001 3.41619 120.191 2.3784 120.191Z" fill="#1EA75A"/>
<path d="M2.3784 140.14C1.34061 140.14 0.499993 140.949 0.499993 141.949C0.499993 142.948 1.34061 143.757 2.3784 143.757C3.41619 143.757 4.25679 142.948 4.25679 141.949C4.25679 140.949 3.41619 140.14 2.3784 140.14Z" fill="#1EA75A"/>
<path d="M2.37839 160.088C1.34061 160.088 0.499991 160.898 0.499991 161.897C0.499991 162.896 1.34061 163.706 2.37839 163.706C3.41618 163.706 4.25679 162.896 4.25679 161.897C4.25679 160.898 3.41618 160.088 2.37839 160.088Z" fill="#1EA75A"/>
<path d="M2.37839 180.037C1.34061 180.037 0.499991 180.846 0.499991 181.846C0.499991 182.845 1.34061 183.654 2.37839 183.654C3.41618 183.654 4.25679 182.845 4.25679 181.846C4.25679 180.846 3.41618 180.037 2.37839 180.037Z" fill="#1EA75A"/>
<path d="M2.37839 199.985C1.3406 199.985 0.499989 200.795 0.499989 201.794C0.499989 202.793 1.3406 203.603 2.37839 203.603C3.41618 203.603 4.25679 202.793 4.25679 201.794C4.25679 200.795 3.41618 199.985 2.37839 199.985Z" fill="#1EA75A"/>
<path d="M2.37839 219.934C1.3406 219.934 0.499989 220.743 0.499989 221.743C0.499989 222.742 1.3406 223.551 2.37839 223.551C3.41618 223.551 4.25679 222.742 4.25679 221.743C4.25679 220.743 3.41618 219.934 2.37839 219.934Z" fill="#1EA75A"/>
<path d="M2.37839 239.882C1.3406 239.882 0.499989 240.692 0.499989 241.691C0.499989 242.69 1.3406 243.5 2.37839 243.5C3.41618 243.5 4.25679 242.69 4.25679 241.691C4.25679 240.692 3.41618 239.882 2.37839 239.882Z" fill="#1EA75A"/>
</g>
<defs>
<clipPath id="clip0_3_4">
<rect width="243" height="92" fill="white" transform="translate(92.5 0.5) rotate(90)"/>
</clipPath>
</defs>
</svg>
