<svg width="54" height="54" viewBox="0 0 54 54" fill="none" xmlns="http://www.w3.org/2000/svg">
<g clip-path="url(#clip0_5_84)">
<path d="M26.67 0C11.97 0 0 11.97 0 26.67C0 41.38 11.97 53.35 26.67 53.35C41.37 53.35 53.34 41.38 53.34 26.67C53.35 11.97 41.38 0 26.67 0ZM26.67 51.33C13.08 51.33 2.02 40.27 2.02 26.67C2.02 13.08 13.08 2.02 26.67 2.02C40.26 2.02 51.32 13.08 51.32 26.67C51.33 40.27 40.27 51.33 26.67 51.33Z" fill="#1EA75A"/>
<path d="M26.67 14.48C19.94 14.48 14.47 19.95 14.47 26.68C14.47 33.41 19.94 38.88 26.67 38.88C33.4 38.88 38.87 33.41 38.87 26.68C38.87 19.95 33.4 14.48 26.67 14.48ZM26.67 36.85C21.06 36.85 16.49 32.28 16.49 26.67C16.49 21.06 21.06 16.5 26.67 16.5C32.28 16.5 36.85 21.07 36.85 26.68C36.85 32.29 32.29 36.85 26.67 36.85Z" fill="#1EA75A"/>
</g>
<defs>
<clipPath id="clip0_5_84">
<rect width="53.35" height="53.35" fill="white"/>
</clipPath>
</defs>
</svg>
